<svg width="31" height="31" viewBox="0 0 31 31" fill="none" xmlns="http://www.w3.org/2000/svg">
<g id="SVG" clip-path="url(#clip0_1_1146)">
<g id="Group">
<path id="ParcelIconPath-3" fill-rule="evenodd" clip-rule="evenodd" d="M2.5576 6.96883L15.3 13.34L28.0424 6.96883C28.3388 6.82063 28.4589 6.46023 28.3107 6.16384C28.2415 6.02546 28.1216 5.91916 27.9759 5.86713L15.3 1.34003L2.62413 5.86713C2.31206 5.97858 2.14944 6.32191 2.26089 6.63397C2.31292 6.77967 2.41923 6.89964 2.5576 6.96883Z" fill="white"/>
<path id="ParcelIconPath-1" d="M21.55 10.321L9.04979 4.58386C8.67333 4.41107 8.50822 3.96583 8.681 3.58937C8.85378 3.21292 9.29903 3.0478 9.67549 3.22059L23.05 9.35903V15.34C23.05 15.7542 22.7142 16.09 22.3 16.09C21.8858 16.09 21.55 15.7542 21.55 15.34V10.321Z" fill="#99A2AA"/>
<path id="ParcelIconRectangle" d="M2.8 8.61487V23.351L15.3 28.7081L27.8 23.351V8.61487L16.0878 13.6344C15.5847 13.85 15.0153 13.85 14.5122 13.6344L2.8 8.61487ZM1.99696 6.63876L15.103 12.2557C15.2288 12.3096 15.3712 12.3096 15.497 12.2557L28.603 6.63876C28.8569 6.52998 29.1508 6.64756 29.2596 6.90137C29.2862 6.96361 29.3 7.03062 29.3 7.09833V24.0104C29.3 24.2104 29.1808 24.3912 28.997 24.4699L15.497 30.2557C15.3712 30.3096 15.2288 30.3096 15.103 30.2557L1.60304 24.4699C1.4192 24.3912 1.3 24.2104 1.3 24.0104V7.09833C1.3 6.82219 1.52386 6.59833 1.8 6.59833C1.86772 6.59833 1.93472 6.61209 1.99696 6.63876Z" fill="#99A2AA"/>
<path id="ParcelIconRectangle_2" d="M2.8 7.32914V23.351L15.3 28.7081L27.8 23.351V7.32914L15.3 1.972L2.8 7.32914ZM1.60304 6.21018L15.103 0.424461C15.2288 0.370557 15.3712 0.370557 15.497 0.424461L28.997 6.21018C29.1808 6.28896 29.3 6.46973 29.3 6.66975V24.0104C29.3 24.2104 29.1808 24.3911 28.997 24.4699L15.497 30.2556C15.3712 30.3095 15.2288 30.3095 15.103 30.2556L1.60304 24.4699C1.4192 24.3911 1.3 24.2104 1.3 24.0104V6.66975C1.3 6.46973 1.4192 6.28896 1.60304 6.21018Z" fill="#99A2AA"/>
<path id="ParcelIconPath-2" d="M14.55 12.34H16.05V29.34H14.55V12.34Z" fill="#99A2AA"/>
</g>
</g>
<defs>
<clipPath id="clip0_1_1146">
<rect width="30" height="30" fill="white" transform="translate(0.300003 0.340027)"/>
</clipPath>
</defs>
</svg>
