<svg width="31" height="31" viewBox="0 0 31 31" fill="none" xmlns="http://www.w3.org/2000/svg">
<g id="SVG">
<g id="Group">
<g id="Group_2">
<path id="target-icon" d="M15.41 27.34C22.0374 27.34 27.41 21.9674 27.41 15.34C27.41 8.71261 22.0374 3.34003 15.41 3.34003C8.78259 3.34003 3.41 8.71261 3.41 15.34C3.41 21.9674 8.78259 27.34 15.41 27.34Z" stroke="#99A2AA" stroke-width="1.5"/>
<path id="target-icon_2" d="M15.41 22.34C19.276 22.34 22.41 19.206 22.41 15.34C22.41 11.474 19.276 8.34003 15.41 8.34003C11.544 8.34003 8.41 11.474 8.41 15.34C8.41 19.206 11.544 22.34 15.41 22.34Z" stroke="#99A2AA" stroke-width="1.5"/>
<path id="target-icon-with-fill" d="M15.41 21.34C18.7237 21.34 21.41 18.6537 21.41 15.34C21.41 12.0263 18.7237 9.34003 15.41 9.34003C12.0963 9.34003 9.41 12.0263 9.41 15.34C9.41 18.6537 12.0963 21.34 15.41 21.34Z" fill="white"/>
<path id="target-icon_3" d="M15.41 17.34C16.5146 17.34 17.41 16.4446 17.41 15.34C17.41 14.2355 16.5146 13.34 15.41 13.34C14.3054 13.34 13.41 14.2355 13.41 15.34C13.41 16.4446 14.3054 17.34 15.41 17.34Z" stroke="#99A2AA" stroke-width="1.5"/>
</g>
</g>
</g>
</svg>
