<svg width="31" height="31" viewBox="0 0 31 31" fill="none" xmlns="http://www.w3.org/2000/svg">
<g id="SVG" clip-path="url(#clip0_1_1164)">
<path id="SubscribeIconPolygon-1" d="M25.46 6.82001H28.78V25L21.46 25.12L25.37 23.64L25.46 6.82001Z" fill="white"/>
<path id="SubscribeIconPolygon-2" d="M1.66 6.82001L4.67 6.96001L4.73 23.62L8.58 25L1.66 24.73V6.82001Z" fill="white"/>
<g id="Clip path group">
<mask id="mask0_1_1164" style="mask-type:luminance" maskUnits="userSpaceOnUse" x="14" y="2" width="12" height="25">
<g id="subscribe-clip-path-1">
<path id="Vector" fill-rule="evenodd" clip-rule="evenodd" d="M14.48 26.47V6.16001L24.61 2.44001C24.6962 2.40709 24.7877 2.39015 24.88 2.39001C25.1037 2.39526 25.3163 2.4885 25.4717 2.6495C25.6271 2.8105 25.7127 3.02628 25.71 3.25001V23.34C25.712 23.5287 25.6512 23.7126 25.5371 23.8629C25.423 24.0131 25.2622 24.1212 25.08 24.17L14.56 26.9C14.49 26.92 14.54 26.47 14.48 26.47Z" fill="white"/>
</g>
</mask>
<g mask="url(#mask0_1_1164)">
<g id="Group">
<g id="Clip path group_2">
<mask id="mask1_1_1164" style="mask-type:luminance" maskUnits="userSpaceOnUse" x="-2" y="-2" width="34" height="34">
<g id="subscribe-clip-path-2">
<path id="Vector_2" d="M31.79 -1.26996H-1.41998V31.94H31.79V-1.26996Z" fill="white"/>
</g>
</mask>
<g mask="url(#mask1_1_1164)">
<g id="Group_2">
<path id="SubscribeIconElement-1" d="M14.35 26.93L14.08 6.19001L24.6 2.44001C24.69 2.4081 24.7846 2.39121 24.88 2.39001C25.1037 2.39526 25.3163 2.4885 25.4717 2.6495C25.6271 2.8105 25.7127 3.02628 25.71 3.25001V23.34C25.712 23.5287 25.6512 23.7126 25.5371 23.8629C25.4231 24.0131 25.2622 24.1212 25.08 24.17L14.56 26.91L14.35 26.93Z" stroke="#99A2AA" stroke-width="3" stroke-miterlimit="10"/>
</g>
</g>
</g>
</g>
</g>
</g>
<g id="Clip path group_3">
<mask id="mask2_1_1164" style="mask-type:luminance" maskUnits="userSpaceOnUse" x="4" y="2" width="13" height="25">
<g id="subscribe-clip-path-3">
<path id="Vector_3" fill-rule="evenodd" clip-rule="evenodd" d="M16.03 26.65C15.96 26.65 15.89 26.92 15.82 26.9L5.30001 24.14C5.12271 24.0926 4.96552 23.989 4.85196 23.8448C4.7384 23.7006 4.67457 23.5235 4.67001 23.34V3.25001C4.66732 3.02628 4.75295 2.8105 4.90834 2.6495C5.06372 2.4885 5.27632 2.39526 5.50001 2.39001C5.5923 2.39015 5.6838 2.40709 5.77001 2.44001L16.3 6.19001" fill="white"/>
</g>
</mask>
<g mask="url(#mask2_1_1164)">
<g id="Group_3">
<g id="Clip path group_4">
<mask id="mask3_1_1164" style="mask-type:luminance" maskUnits="userSpaceOnUse" x="-2" y="-2" width="34" height="34">
<g id="subscribe-clip-path-2_2">
<path id="Vector_4" d="M31.79 -1.26996H-1.41998V31.94H31.79V-1.26996Z" fill="white"/>
</g>
</mask>
<g mask="url(#mask3_1_1164)">
<g id="Group_4">
<path id="SubscribeIconElement-2" d="M16.03 26.93H15.82L5.30001 24.14C5.12271 24.0926 4.96552 23.989 4.85196 23.8448C4.7384 23.7006 4.67457 23.5235 4.67001 23.34V3.25001C4.66732 3.02628 4.75295 2.8105 4.90834 2.6495C5.06372 2.4885 5.27632 2.39526 5.50001 2.39001C5.59546 2.39121 5.69006 2.4081 5.78001 2.44001L16.3 6.19001" stroke="#99A2AA" stroke-width="3" stroke-miterlimit="10"/>
</g>
</g>
</g>
</g>
</g>
</g>
<g id="Clip path group_5">
<mask id="mask4_1_1164" style="mask-type:luminance" maskUnits="userSpaceOnUse" x="14" y="5" width="17" height="22">
<g id="subscribe-clip-path-5">
<path id="Vector_5" fill-rule="evenodd" clip-rule="evenodd" d="M15.12 26.88L29.28 26.12C29.5031 26.1125 29.715 26.0206 29.8728 25.8628C30.0306 25.705 30.1225 25.4931 30.13 25.27V6.27002C30.1274 6.15489 30.102 6.04143 30.0553 5.93619C30.0085 5.83096 29.9413 5.73606 29.8576 5.65699C29.7739 5.57793 29.6753 5.51626 29.5676 5.47559C29.4598 5.43491 29.3451 5.41602 29.23 5.42002H29.19L25.45 5.62002M14.08 26.93H14.19H14.08Z" fill="white"/>
</g>
</mask>
<g mask="url(#mask4_1_1164)">
<g id="Group_5">
<g id="Clip path group_6">
<mask id="mask5_1_1164" style="mask-type:luminance" maskUnits="userSpaceOnUse" x="-2" y="-2" width="34" height="34">
<g id="subscribe-clip-path-2_3">
<path id="Vector_6" d="M31.79 -1.26996H-1.41998V31.94H31.79V-1.26996Z" fill="white"/>
</g>
</mask>
<g mask="url(#mask5_1_1164)">
<g id="Group_6">
<path id="SubscribeIconElement-3" d="M15.12 26.88L29.28 26.12C29.5031 26.1125 29.715 26.0206 29.8728 25.8628C30.0306 25.705 30.1225 25.4931 30.13 25.27V6.27002C30.1274 6.15489 30.102 6.04143 30.0553 5.93619C30.0085 5.83096 29.9413 5.73606 29.8576 5.65699C29.7739 5.57793 29.6753 5.51626 29.5676 5.47559C29.4598 5.43491 29.3451 5.41602 29.23 5.42002H29.19L25.45 5.62002" stroke="#99A2AA" stroke-width="3" stroke-linecap="round" stroke-linejoin="round"/>
</g>
</g>
</g>
</g>
</g>
</g>
<g id="Clip path group_7">
<mask id="mask6_1_1164" style="mask-type:luminance" maskUnits="userSpaceOnUse" x="0" y="5" width="17" height="22">
<g id="subscribe-clip-path-7">
<path id="Vector_7" fill-rule="evenodd" clip-rule="evenodd" d="M15.19 26.83L1.1 26.07C0.876947 26.0626 0.665067 25.9706 0.507254 25.8128C0.349441 25.655 0.257486 25.4431 0.250003 25.22V6.22005C0.248215 6.09882 0.271784 5.97856 0.319198 5.86698C0.366611 5.7554 0.436823 5.65496 0.525329 5.5721C0.613836 5.48924 0.718683 5.4258 0.833145 5.38584C0.947608 5.34588 1.06916 5.33028 1.19 5.34005L4.93 5.54005M16.28 26.84H16.22H16.28Z" fill="white"/>
</g>
</mask>
<g mask="url(#mask6_1_1164)">
<g id="Group_7">
<g id="Clip path group_8">
<mask id="mask7_1_1164" style="mask-type:luminance" maskUnits="userSpaceOnUse" x="-2" y="-2" width="34" height="34">
<g id="subscribe-clip-path-2_4">
<path id="Vector_8" d="M31.79 -1.26996H-1.41998V31.94H31.79V-1.26996Z" fill="white"/>
</g>
</mask>
<g mask="url(#mask7_1_1164)">
<g id="Group_8">
<path id="SubscribeIconElement-4" d="M15.19 26.83L1.1 26.07C0.876947 26.0626 0.665067 25.9706 0.507254 25.8128C0.349441 25.655 0.257486 25.4431 0.250003 25.22V6.22005C0.248215 6.09882 0.271784 5.97856 0.319198 5.86698C0.366611 5.7554 0.436823 5.65496 0.525329 5.5721C0.613836 5.48924 0.718683 5.4258 0.833145 5.38584C0.947608 5.34588 1.06916 5.33028 1.19 5.34005L4.93 5.54005M16.28 26.84H16.23" stroke="#99A2AA" stroke-width="3" stroke-linecap="round" stroke-linejoin="round"/>
</g>
</g>
</g>
</g>
</g>
</g>
<g id="Clip path group_9">
<mask id="mask8_1_1164" style="mask-type:luminance" maskUnits="userSpaceOnUse" x="-2" y="-2" width="34" height="34">
<g id="subscribe-clip-path-2_5">
<path id="Vector_9" d="M31.79 -1.26996H-1.41998V31.94H31.79V-1.26996Z" fill="white"/>
</g>
</mask>
<g mask="url(#mask8_1_1164)">
<g id="Group_9">
<path id="SubscribeIconElement-5" d="M15.23 7.05005V26.93" stroke="#99A2AA" stroke-width="1.5" stroke-miterlimit="10" stroke-linecap="round"/>
</g>
</g>
</g>
</g>
<defs>
<clipPath id="clip0_1_1164">
<rect width="30" height="30" fill="white" transform="translate(0.190002 0.340027)"/>
</clipPath>
</defs>
</svg>
