<svg width="144" height="95" viewBox="0 0 144 95" fill="none" xmlns="http://www.w3.org/2000/svg">
<g id="Group 435">
<path id="Rectangle 57" d="M16.2808 23.4586C16.2808 12.2447 25.3715 3.15405 36.5854 3.15405H115.219C126.12 3.15405 132.013 15.9295 124.936 24.2214C124.474 24.7632 123.967 25.2653 123.421 25.7225L122.74 26.2928C119.134 29.3127 114.701 31.1747 110.02 31.6354L98.6963 32.7498H78.873C69.9028 32.7498 61.1674 35.6174 53.9425 40.9339C51.8573 42.4682 49.9183 44.1917 48.1501 46.0825L42.7291 51.8793C42.1333 52.5164 41.5962 53.206 41.1244 53.9397C33.8405 65.2663 16.2808 60.1075 16.2808 46.641V23.4586Z" stroke="#160E0C"/>
<path id="Rectangle 58" d="M127.719 71.1789C127.719 82.3928 118.629 91.4834 107.415 91.4834H28.7807C17.8796 91.4834 11.9871 78.7079 19.0638 70.416C19.5261 69.8743 20.0329 69.3722 20.5789 68.9149L21.26 68.3446C24.8661 65.3247 29.2993 63.4628 33.9803 63.0021L45.3037 61.8876H65.127C74.0972 61.8876 82.8326 59.0201 90.0575 53.7036C92.1427 52.1692 94.0817 50.4457 95.8499 48.5549L101.271 42.7581C101.867 42.121 102.404 41.4314 102.876 40.6978C110.159 29.3712 127.719 34.5299 127.719 47.9964V71.1789Z" stroke="#160E0C"/>
</g>
</svg>
